<?xml version="1.0" standalone="no"?>
<!DOCTYPE svg PUBLIC "-//W3C//DTD SVG 20010904//EN"
 "http://www.w3.org/TR/2001/REC-SVG-20010904/DTD/svg10.dtd">
<svg version="1.0" xmlns="http://www.w3.org/2000/svg"
 width="2048.000000pt" height="2048.000000pt" viewBox="0 0 2048.000000 2048.000000"
 preserveAspectRatio="xMidYMid meet">
<metadata>
Created by potrace 1.14, written by Peter Selinger 2001-2017
</metadata>
<g transform="translate(0.000000,2048.000000) scale(0.100000,-0.100000)"
fill="#000000" stroke="none">
<path d="M8465 17481 c-33 -20 -154 -90 -750 -434 -214 -124 -404 -233 -422
-243 -184 -107 -408 -236 -459 -265 -36 -19 -70 -41 -76 -47 -7 -7 -15 -12
-20 -12 -4 0 -87 -46 -185 -103 -98 -57 -313 -181 -478 -276 -388 -224 -349
-198 -332 -224 8 -12 29 -49 47 -82 18 -33 43 -76 55 -95 12 -19 25 -42 28
-50 4 -8 16 -28 26 -45 17 -28 69 -117 113 -195 11 -19 24 -40 30 -47 6 -8 -7
-22 -47 -47 -30 -20 -57 -36 -59 -36 -4 0 -252 -143 -368 -212 -38 -22 -68
-43 -68 -47 0 -4 6 -15 13 -26 8 -11 27 -45 44 -75 17 -30 70 -122 118 -205
84 -143 135 -235 135 -241 0 -4 -150 -94 -156 -94 -3 0 -30 -16 -60 -35 -30
-19 -56 -35 -58 -35 -4 0 -205 -116 -253 -146 -22 -14 -21 -15 59 -151 44 -76
90 -156 102 -178 12 -22 48 -83 79 -137 60 -101 63 -108 47 -108 -5 0 -33 -15
-62 -33 -29 -19 -60 -37 -68 -41 -8 -4 -24 -12 -35 -19 -26 -15 -169 -99 -215
-124 -95 -54 -160 -95 -160 -99 0 -3 8 -18 19 -32 10 -15 22 -37 25 -49 4 -13
12 -23 17 -23 5 0 9 -4 9 -9 0 -6 33 -66 73 -135 39 -69 88 -154 108 -188 19
-35 102 -178 183 -318 82 -140 157 -271 168 -290 117 -207 344 -596 350 -601
13 -9 -17 -28 -252 -161 -19 -11 -92 -54 -162 -94 -69 -41 -129 -74 -132 -74
-5 0 -112 179 -171 285 -41 75 -137 238 -147 252 -7 9 -31 -1 -91 -36 -100
-59 -332 -193 -588 -340 -352 -202 -429 -247 -429 -254 0 -4 35 -70 79 -145
43 -75 89 -155 101 -177 12 -22 31 -52 41 -67 11 -14 19 -29 19 -32 0 -4 65
-120 99 -176 5 -8 62 -107 127 -220 65 -113 129 -224 143 -247 l26 -41 225
129 c124 72 248 144 276 160 l52 29 123 -212 c146 -252 166 -286 181 -316 7
-13 17 -21 26 -17 7 3 130 72 273 155 143 82 263 150 268 150 7 0 153 -245
226 -379 10 -20 23 -37 27 -39 4 -2 8 -8 8 -13 0 -5 14 -34 30 -63 l31 -54
182 105 c100 58 202 117 226 131 25 14 67 38 93 53 27 16 51 29 53 29 2 0 74
-123 161 -272 86 -150 158 -275 160 -276 1 -2 31 13 66 33 35 21 79 47 98 57
19 11 103 60 185 108 184 107 215 123 215 111 0 -5 38 -75 85 -156 47 -80 96
-165 109 -188 13 -23 44 -78 70 -122 34 -60 43 -82 34 -88 -7 -4 -130 -76
-273 -158 -143 -83 -261 -152 -263 -154 -2 -2 19 -43 47 -90 28 -48 51 -88 51
-90 0 -2 27 -49 60 -104 33 -56 60 -106 60 -111 0 -6 5 -10 10 -10 6 0 10 -5
10 -10 0 -6 18 -39 39 -75 l39 -64 -278 -161 -279 -161 31 -52 c18 -29 47 -79
65 -112 19 -33 43 -76 55 -95 11 -19 140 -242 285 -495 146 -253 274 -473 283
-490 10 -16 63 -109 118 -205 129 -224 121 -213 152 -197 48 26 105 59 115 67
6 4 35 21 65 38 30 16 121 68 201 115 l146 85 32 -55 c17 -30 31 -59 31 -64 0
-5 5 -9 10 -9 6 0 10 -4 10 -10 0 -5 27 -55 60 -111 33 -55 60 -102 60 -103 0
-2 26 -48 58 -103 l58 -101 39 23 c22 12 229 132 460 265 231 134 434 251 450
260 17 10 59 34 93 55 35 20 67 33 72 29 6 -7 121 -206 228 -395 11 -19 33
-58 51 -87 36 -61 37 -70 14 -79 -10 -4 -110 -61 -223 -126 -113 -66 -227
-132 -255 -147 -27 -15 -49 -32 -48 -37 1 -5 59 -108 129 -228 70 -121 139
-241 153 -267 14 -26 29 -48 34 -48 6 0 260 144 337 191 8 5 110 63 225 129
116 66 217 124 225 130 8 5 44 26 80 46 36 20 106 61 155 90 229 134 457 264
462 264 3 0 17 8 31 19 15 10 54 33 86 51 56 30 60 31 70 14 30 -50 67 -113
126 -216 35 -62 71 -125 80 -139 8 -14 34 -60 58 -103 l43 -76 49 27 c26 16
79 45 117 67 37 21 104 60 148 86 44 26 117 68 162 94 l81 47 -80 137 c-44 75
-90 155 -103 177 -12 22 -48 84 -79 139 -32 54 -56 99 -54 101 4 4 289 170
343 200 22 12 77 43 123 70 46 26 84 45 86 43 10 -15 39 -63 54 -90 82 -144
256 -444 261 -450 3 -4 51 20 106 52 55 32 116 67 135 77 43 24 303 174 309
179 7 6 -15 48 -199 362 -62 106 -110 195 -108 197 4 4 81 49 308 180 610 352
1300 750 1322 764 l27 17 -35 59 c-20 33 -47 80 -61 105 -13 25 -32 59 -42 75
-10 17 -28 47 -39 67 -12 20 -48 84 -82 141 -59 101 -62 104 -85 93 -14 -6
-25 -14 -25 -18 0 -5 -4 -8 -9 -8 -5 0 -118 -63 -251 -140 -134 -77 -244 -139
-245 -138 -7 7 -205 351 -205 356 0 3 -6 13 -14 21 -7 9 -29 45 -48 81 -20 36
-56 99 -80 140 -25 41 -56 95 -70 120 -14 25 -76 133 -138 240 -62 107 -121
209 -130 225 -9 17 -71 123 -138 237 -66 114 -123 216 -126 226 -4 13 1 22 16
30 13 6 46 25 73 42 28 16 56 33 64 37 8 3 76 42 150 86 75 43 154 89 176 102
22 12 96 55 165 95 69 40 150 86 180 103 30 16 66 38 80 47 14 9 30 19 35 21
23 9 145 81 150 88 2 5 -65 129 -151 277 -85 148 -153 273 -150 279 2 6 30 26
62 43 33 18 66 37 74 42 8 6 104 61 212 123 l198 114 -28 44 c-16 24 -44 73
-64 109 -60 108 -186 324 -198 337 -5 7 -10 19 -10 26 0 43 -27 35 -190 -60
-91 -53 -183 -105 -205 -117 -22 -12 -42 -24 -45 -27 -3 -3 -35 -22 -71 -42
l-67 -37 -53 93 c-101 176 -261 452 -264 456 -2 2 -110 -58 -240 -133 -129
-75 -238 -136 -241 -136 -3 0 -17 -9 -31 -20 -35 -28 -47 -25 -69 15 -17 30
-124 218 -164 287 -8 14 -40 69 -70 122 -30 53 -59 96 -65 96 -6 0 -85 -43
-174 -95 -90 -52 -165 -95 -167 -95 -1 0 -32 -18 -68 -40 -36 -22 -68 -40 -72
-40 -3 0 -17 -9 -31 -20 -14 -11 -29 -20 -33 -20 -3 0 -26 35 -51 78 -48 84
-184 318 -199 342 -5 8 -23 41 -40 74 -25 47 -29 60 -18 67 7 5 131 77 275
160 l262 151 -21 36 c-64 115 -282 489 -291 500 -13 17 -11 18 216 149 287
165 291 167 311 179 17 11 7 32 -136 280 -86 148 -165 285 -175 304 -11 19
-34 59 -52 88 -17 29 -31 57 -31 62 0 6 -4 10 -10 10 -5 0 -10 4 -10 10 0 5
-21 44 -46 87 -25 43 -59 102 -75 131 -17 29 -43 74 -59 100 -16 26 -38 65
-49 87 -11 22 -34 60 -51 85 -16 25 -30 49 -30 54 0 5 -6 17 -14 25 -7 9 -27
41 -43 71 -38 69 -396 692 -475 823 -32 55 -58 101 -58 104 0 3 -21 40 -46 82
-25 42 -50 83 -54 91 -5 8 -44 77 -87 152 l-78 137 -40 -24 c-22 -12 -56 -32
-75 -42 -72 -41 -145 -84 -160 -93 -8 -6 -21 -13 -29 -17 -8 -3 -66 -37 -130
-75 l-116 -68 -22 27 c-13 16 -23 31 -23 36 0 4 -11 24 -23 45 -13 20 -35 57
-49 82 -14 25 -60 106 -103 180 -43 74 -84 145 -89 157 -11 23 -31 30 -40 14
-3 -5 -23 -18 -43 -29 -21 -11 -121 -68 -223 -127 -102 -59 -203 -117 -226
-129 l-40 -22 -150 259 c-82 143 -154 267 -160 275 -12 17 -17 16 -95 -30 -30
-18 -120 -70 -200 -116 -79 -46 -153 -89 -164 -95 -97 -59 -97 -59 -110 -45
-7 7 -59 94 -116 193 -175 306 -188 328 -196 336 -5 5 -22 0 -38 -10z"/>
<path d="M16430 8778 c-19 -11 -46 -28 -60 -37 -14 -8 -28 -15 -32 -14 -3 2
-12 -4 -18 -12 -7 -8 -19 -15 -26 -15 -8 0 -14 -4 -14 -10 0 -5 -4 -10 -10
-10 -5 0 -42 -19 -82 -43 -40 -24 -80 -46 -88 -50 -8 -4 -24 -13 -35 -20 -11
-7 -46 -27 -78 -46 -32 -18 -57 -39 -55 -45 2 -7 72 -132 157 -279 l154 -266
41 22 c22 12 52 30 66 39 14 9 48 29 77 45 28 15 93 52 145 82 51 30 107 62
123 71 17 10 46 27 67 39 l36 22 -65 112 c-36 62 -76 131 -89 154 -79 140
-163 278 -170 280 -5 1 -25 -7 -44 -19z"/>
<path d="M14334 6091 c-8 -8 -345 -204 -464 -269 -25 -14 -53 -32 -62 -40 -16
-13 -16 -16 2 -41 10 -14 78 -129 151 -256 72 -126 137 -237 143 -246 10 -15
20 -12 91 30 44 26 105 62 135 78 30 17 98 57 150 87 52 31 114 66 138 78 45
24 49 33 29 63 -8 11 -27 45 -44 75 -27 49 -253 441 -257 447 -1 2 -7 -1 -12
-6z"/>
<path d="M13224 5451 c-5 -5 -124 -75 -264 -156 -140 -81 -259 -150 -264 -155
-7 -7 10 -43 84 -172 8 -14 62 -108 119 -207 l104 -181 25 16 c24 16 25 16 19
-7 -4 -13 -7 -29 -7 -35 0 -12 -60 -41 -100 -50 -94 -19 -125 -24 -186 -30
-38 -3 -82 -8 -99 -9 -125 -13 -251 -19 -376 -20 -185 0 -183 -1 -175 111 3
44 10 103 15 130 6 27 12 63 15 79 2 17 12 75 21 130 28 171 20 255 -30 297
-31 27 -80 23 -115 -9 -31 -29 -32 -35 -55 -268 -6 -58 -9 -92 -20 -192 -3
-27 -7 -59 -10 -73 -3 -22 -7 -49 -20 -170 -1 -14 -5 -44 -9 -67 -8 -59 -16
-113 -21 -159 -3 -22 -10 -64 -15 -94 -5 -30 -12 -75 -15 -100 -8 -57 -43
-236 -55 -275 -28 -97 -17 -155 42 -213 51 -51 78 -53 111 -9 35 47 50 108 62
252 10 130 16 196 20 213 2 10 7 45 11 77 4 33 8 62 9 65 18 82 22 86 120 95
39 3 90 8 115 10 25 3 86 7 135 10 102 6 261 16 320 21 190 15 232 14 250 -6
13 -15 19 -36 18 -73 0 -48 -12 -203 -18 -237 -1 -8 -6 -40 -10 -70 -4 -30 -9
-64 -11 -75 -8 -39 -18 -150 -18 -194 0 -36 5 -48 32 -72 48 -43 83 -39 137
16 50 52 51 57 60 265 6 131 8 168 20 335 8 113 19 226 30 305 2 14 9 67 16
119 8 59 18 100 28 110 9 9 78 51 153 94 l137 78 -68 117 c-77 132 -175 302
-201 347 -44 77 -57 94 -66 86z"/>
<path d="M8020 5290 c-79 -16 -86 -18 -162 -50 -275 -114 -623 -477 -756 -787
-69 -162 -93 -272 -95 -431 -2 -193 70 -325 229 -422 97 -59 155 -73 289 -74
74 0 137 5 165 14 25 7 50 14 55 15 34 7 176 71 233 104 88 51 226 173 227
200 0 3 3 11 7 17 8 12 4 47 -7 64 -13 21 -46 7 -160 -67 -197 -127 -356 -183
-505 -179 -215 6 -336 146 -326 379 7 152 59 298 173 490 188 316 528 587 736
587 31 0 45 -7 68 -31 26 -28 28 -35 24 -92 -4 -61 -12 -115 -20 -127 -2 -3
-6 -30 -10 -61 -5 -47 -3 -59 15 -82 12 -15 31 -27 42 -27 34 0 109 43 135 77
30 39 38 79 38 198 0 132 -38 201 -143 262 -34 20 -59 26 -125 29 -45 1 -102
-1 -127 -6z"/>
<path d="M17182 5230 c-57 -26 -68 -56 -75 -210 -4 -69 -8 -134 -10 -145 -3
-11 -8 -47 -12 -80 -4 -32 -9 -68 -11 -80 -2 -11 -6 -38 -9 -60 -3 -22 -7 -51
-10 -65 -2 -14 -7 -41 -10 -60 -3 -19 -7 -46 -10 -60 -3 -14 -7 -41 -10 -60
-3 -19 -8 -42 -10 -50 -2 -8 -7 -31 -10 -50 -3 -19 -15 -80 -26 -135 -12 -55
-23 -108 -25 -118 -2 -10 -5 -26 -8 -35 -3 -9 -7 -28 -10 -42 -14 -82 -23 -94
-47 -61 -8 10 -59 79 -115 152 -157 210 -315 455 -406 634 -71 139 -100 218
-133 360 -19 85 -101 113 -181 60 -34 -22 -41 -44 -47 -165 -3 -58 -8 -121
-11 -140 -3 -19 -8 -51 -11 -70 -30 -197 -164 -844 -180 -870 -2 -4 -7 -22
-10 -41 -3 -19 -10 -50 -14 -69 -4 -19 -7 -60 -6 -90 4 -110 22 -145 80 -153
37 -5 58 5 96 46 33 37 38 57 44 197 2 58 7 116 9 130 3 14 12 75 21 135 8 61
22 152 31 203 8 51 17 105 19 120 10 62 18 103 46 226 27 122 34 145 42 135 4
-4 57 -97 124 -219 14 -25 32 -52 39 -61 8 -8 14 -19 14 -24 0 -4 16 -33 37
-64 94 -144 193 -290 224 -332 19 -25 43 -57 54 -73 11 -15 46 -61 78 -103 31
-41 57 -82 57 -90 0 -25 31 -75 77 -125 41 -43 50 -48 87 -47 57 0 106 19 129
50 16 23 19 43 19 145 0 66 4 144 9 174 5 30 11 71 14 90 3 20 8 47 10 60 3
14 8 41 11 60 2 19 7 46 10 60 2 14 7 39 10 55 8 46 53 287 60 315 3 14 7 34
9 45 3 11 7 29 9 40 2 11 19 81 36 155 56 235 61 264 56 307 -12 104 -62 135
-154 93z"/>
<path d="M10740 5227 c-3 -3 -36 -7 -75 -11 -158 -12 -432 -75 -529 -121 -33
-16 -62 -37 -68 -50 -16 -35 -1 -90 31 -118 16 -13 32 -39 36 -57 8 -35 8
-136 1 -185 -2 -16 -8 -64 -11 -105 -4 -41 -10 -80 -14 -87 -3 -6 -63 89 -134
212 -71 123 -134 231 -141 241 -11 15 -31 6 -207 -96 -107 -62 -214 -124 -239
-138 -112 -63 -123 -72 -108 -90 12 -14 84 -135 122 -207 6 -11 51 -89 99
-172 74 -128 92 -151 105 -144 10 5 52 30 95 55 43 25 80 46 82 46 3 0 24 12
48 27 52 33 258 153 263 153 4 0 -3 -82 -11 -127 -3 -18 -8 -54 -10 -80 -3
-27 -7 -61 -10 -78 -2 -16 -7 -57 -11 -90 -3 -33 -8 -73 -10 -90 -24 -180 -24
-301 0 -337 22 -34 79 -47 115 -27 47 27 62 69 67 186 9 246 17 354 29 373 7
11 34 19 225 64 327 78 559 185 722 335 198 181 233 436 81 585 -51 50 -162
103 -251 120 -68 13 -282 22 -292 13z m269 -176 c127 -32 184 -95 184 -202 0
-78 -37 -152 -110 -219 -160 -147 -513 -287 -788 -313 -11 -1 -19 3 -19 8 1 6
5 42 8 80 4 39 9 77 11 85 2 8 6 45 10 81 3 36 7 76 9 90 8 48 16 115 22 188
10 112 14 122 59 138 68 24 217 61 275 68 30 4 56 8 58 9 12 12 224 2 281 -13z"/>
<path d="M14570 5203 c-29 -21 -67 -64 -94 -107 -47 -76 -128 -222 -186 -331
-152 -288 -348 -622 -400 -682 -5 -7 -10 -14 -10 -17 0 -2 -47 -73 -103 -158
-118 -174 -137 -207 -137 -241 0 -53 77 -114 129 -102 40 9 58 32 149 190 122
213 162 275 178 275 8 0 25 -7 38 -15 24 -16 38 -15 111 4 176 46 259 64 388
86 82 14 160 25 173 25 21 0 34 -21 110 -177 129 -267 199 -374 280 -424 39
-24 102 -23 127 3 20 20 44 70 42 88 -1 8 -3 22 -3 31 -1 8 -27 42 -57 75
-150 160 -262 380 -422 834 -137 388 -171 494 -164 515 8 22 6 78 -3 101 -7
18 -66 44 -98 44 -13 0 -35 -8 -48 -17z m56 -453 c26 -80 71 -212 99 -295 l52
-150 -41 -8 c-23 -4 -88 -16 -146 -27 -149 -29 -149 -29 -210 -39 -30 -6 -76
-12 -103 -16 -26 -3 -59 -10 -72 -15 -23 -9 -18 4 51 138 42 81 89 170 104
197 45 82 115 214 160 304 29 59 44 80 50 70 4 -8 29 -79 56 -159z"/>
<path d="M3768 5195 c-6 -6 -280 -18 -437 -19 l-153 -1 -28 -34 c-58 -69 -45
-118 40 -146 70 -23 72 -38 37 -245 -8 -47 -18 -107 -22 -135 -3 -27 -8 -63
-10 -80 -2 -16 -7 -52 -10 -80 -3 -27 -8 -63 -10 -80 -2 -16 -7 -55 -10 -85
-3 -30 -7 -68 -9 -85 -5 -37 -17 -188 -22 -275 -6 -114 -15 -163 -43 -236 -32
-82 -28 -105 25 -158 25 -25 34 -27 72 -22 23 3 84 28 135 55 68 37 128 59
232 86 449 116 706 261 885 497 108 143 153 270 152 433 0 150 -34 263 -108
361 -66 88 -122 134 -221 183 -100 50 -173 64 -340 67 -83 1 -153 1 -155 -1z
m267 -168 c203 -52 330 -171 361 -337 51 -280 -119 -553 -451 -723 -97 -50
-128 -61 -299 -112 -189 -56 -291 -74 -308 -57 -19 19 -14 349 7 460 1 9 6 49
9 87 4 39 13 113 21 165 7 52 16 117 20 144 3 27 8 52 10 55 2 4 6 35 10 71 3
35 8 67 10 70 2 4 7 26 10 51 3 24 8 53 10 64 2 11 4 25 4 31 1 12 44 19 181
30 47 3 86 8 88 9 5 4 297 -3 317 -8z"/>
<path d="M5299 5185 c-45 -24 -65 -84 -95 -280 -3 -16 -9 -55 -14 -85 -5 -30
-12 -71 -15 -90 -3 -19 -14 -84 -25 -145 -10 -60 -22 -129 -25 -152 -3 -23 -8
-57 -11 -75 -5 -38 -5 -221 0 -258 9 -55 27 -123 50 -185 69 -180 175 -280
371 -346 173 -59 494 -4 630 108 97 80 131 114 172 168 77 101 103 174 128
365 11 87 14 116 20 200 3 47 8 96 10 110 2 14 6 48 9 75 4 28 11 73 16 100
59 317 57 455 -6 471 -66 17 -122 -34 -150 -134 -10 -37 -19 -76 -20 -87 -1
-11 -4 -36 -7 -55 -10 -57 -17 -140 -32 -325 -10 -133 -21 -242 -29 -290 -7
-47 -20 -119 -21 -125 -1 -3 -5 -23 -10 -44 -21 -104 -78 -211 -143 -267 -42
-38 -145 -86 -199 -95 -21 -3 -41 -8 -44 -10 -3 -2 -46 -6 -96 -10 -113 -8
-172 8 -270 73 -111 74 -159 150 -182 291 -9 51 -7 289 3 352 2 14 7 48 10 75
29 214 42 280 89 452 14 51 24 98 23 105 -11 62 -57 128 -89 128 -12 -1 -34
-7 -48 -15z"/>
</g>
</svg>
